<mxfile host="Electron" modified="2023-09-06T16:51:57.492Z" agent="Mozilla/5.0 (Windows NT 10.0; Win64; x64) AppleWebKit/537.36 (KHTML, like Gecko) draw.io/21.6.5 Chrome/114.0.5735.243 Electron/25.3.1 Safari/537.36" etag="tqojKVViumX-8jw1rCzT" version="21.6.5" type="device">
  <diagram name="Page-1" id="wxFJn7DeGOxnf3FE4H3l">
    <mxGraphModel dx="1418" dy="828" grid="1" gridSize="10" guides="1" tooltips="1" connect="1" arrows="1" fold="1" page="1" pageScale="1" pageWidth="850" pageHeight="1100" math="0" shadow="0">
      <root>
        <mxCell id="0" />
        <mxCell id="1" parent="0" />
        <mxCell id="KkaFJ8NdGpzKe8xKeU3h-1" value="Ini File" style="swimlane;whiteSpace=wrap;html=1;" vertex="1" parent="1">
          <mxGeometry x="40" y="50" width="930" height="480" as="geometry" />
        </mxCell>
        <mxCell id="KkaFJ8NdGpzKe8xKeU3h-2" value="SectionData" style="swimlane;fontStyle=0;childLayout=stackLayout;horizontal=1;startSize=26;fillColor=none;horizontalStack=0;resizeParent=1;resizeParentMax=0;resizeLast=0;collapsible=1;marginBottom=0;whiteSpace=wrap;html=1;" vertex="1" parent="KkaFJ8NdGpzKe8xKeU3h-1">
          <mxGeometry x="420" y="111" width="190" height="138" as="geometry" />
        </mxCell>
        <mxCell id="KkaFJ8NdGpzKe8xKeU3h-3" value="+ rawText: string" style="text;strokeColor=none;fillColor=none;align=left;verticalAlign=top;spacingLeft=4;spacingRight=4;overflow=hidden;rotatable=0;points=[[0,0.5],[1,0.5]];portConstraint=eastwest;whiteSpace=wrap;html=1;" vertex="1" parent="KkaFJ8NdGpzKe8xKeU3h-2">
          <mxGeometry y="26" width="190" height="26" as="geometry" />
        </mxCell>
        <mxCell id="KkaFJ8NdGpzKe8xKeU3h-4" value="+ comments: IniComment[]" style="text;strokeColor=none;fillColor=none;align=left;verticalAlign=top;spacingLeft=4;spacingRight=4;overflow=hidden;rotatable=0;points=[[0,0.5],[1,0.5]];portConstraint=eastwest;whiteSpace=wrap;html=1;" vertex="1" parent="KkaFJ8NdGpzKe8xKeU3h-2">
          <mxGeometry y="52" width="190" height="26" as="geometry" />
        </mxCell>
        <mxCell id="KkaFJ8NdGpzKe8xKeU3h-5" value="+ iniObject: IIniObject" style="text;strokeColor=none;fillColor=none;align=left;verticalAlign=top;spacingLeft=4;spacingRight=4;overflow=hidden;rotatable=0;points=[[0,0.5],[1,0.5]];portConstraint=eastwest;whiteSpace=wrap;html=1;" vertex="1" parent="KkaFJ8NdGpzKe8xKeU3h-2">
          <mxGeometry y="78" width="190" height="26" as="geometry" />
        </mxCell>
        <mxCell id="KkaFJ8NdGpzKe8xKeU3h-12" value="" style="line;strokeWidth=1;fillColor=none;align=left;verticalAlign=middle;spacingTop=-1;spacingLeft=3;spacingRight=3;rotatable=0;labelPosition=right;points=[];portConstraint=eastwest;strokeColor=inherit;" vertex="1" parent="KkaFJ8NdGpzKe8xKeU3h-2">
          <mxGeometry y="104" width="190" height="8" as="geometry" />
        </mxCell>
        <mxCell id="KkaFJ8NdGpzKe8xKeU3h-13" value="+ updateText(): void" style="text;strokeColor=none;fillColor=none;align=left;verticalAlign=top;spacingLeft=4;spacingRight=4;overflow=hidden;rotatable=0;points=[[0,0.5],[1,0.5]];portConstraint=eastwest;whiteSpace=wrap;html=1;" vertex="1" parent="KkaFJ8NdGpzKe8xKeU3h-2">
          <mxGeometry y="112" width="190" height="26" as="geometry" />
        </mxCell>
        <mxCell id="KkaFJ8NdGpzKe8xKeU3h-6" value="IniComment" style="swimlane;fontStyle=0;childLayout=stackLayout;horizontal=1;startSize=26;fillColor=none;horizontalStack=0;resizeParent=1;resizeParentMax=0;resizeLast=0;collapsible=1;marginBottom=0;whiteSpace=wrap;html=1;" vertex="1" parent="KkaFJ8NdGpzKe8xKeU3h-1">
          <mxGeometry x="710" y="124" width="140" height="104" as="geometry" />
        </mxCell>
        <mxCell id="KkaFJ8NdGpzKe8xKeU3h-7" value="+ content: string" style="text;strokeColor=none;fillColor=none;align=left;verticalAlign=top;spacingLeft=4;spacingRight=4;overflow=hidden;rotatable=0;points=[[0,0.5],[1,0.5]];portConstraint=eastwest;whiteSpace=wrap;html=1;" vertex="1" parent="KkaFJ8NdGpzKe8xKeU3h-6">
          <mxGeometry y="26" width="140" height="26" as="geometry" />
        </mxCell>
        <mxCell id="KkaFJ8NdGpzKe8xKeU3h-8" value="+ lineNum: number" style="text;strokeColor=none;fillColor=none;align=left;verticalAlign=top;spacingLeft=4;spacingRight=4;overflow=hidden;rotatable=0;points=[[0,0.5],[1,0.5]];portConstraint=eastwest;whiteSpace=wrap;html=1;" vertex="1" parent="KkaFJ8NdGpzKe8xKeU3h-6">
          <mxGeometry y="52" width="140" height="26" as="geometry" />
        </mxCell>
        <mxCell id="KkaFJ8NdGpzKe8xKeU3h-9" value="+ position: number" style="text;strokeColor=none;fillColor=none;align=left;verticalAlign=top;spacingLeft=4;spacingRight=4;overflow=hidden;rotatable=0;points=[[0,0.5],[1,0.5]];portConstraint=eastwest;whiteSpace=wrap;html=1;" vertex="1" parent="KkaFJ8NdGpzKe8xKeU3h-6">
          <mxGeometry y="78" width="140" height="26" as="geometry" />
        </mxCell>
        <mxCell id="KkaFJ8NdGpzKe8xKeU3h-11" style="edgeStyle=orthogonalEdgeStyle;rounded=0;orthogonalLoop=1;jettySize=auto;html=1;" edge="1" parent="KkaFJ8NdGpzKe8xKeU3h-1" source="KkaFJ8NdGpzKe8xKeU3h-4" target="KkaFJ8NdGpzKe8xKeU3h-6">
          <mxGeometry relative="1" as="geometry" />
        </mxCell>
        <mxCell id="KkaFJ8NdGpzKe8xKeU3h-14" value="updates rawText with the up-to-date stringified ini, comments applied" style="text;html=1;strokeColor=none;fillColor=none;align=left;verticalAlign=top;whiteSpace=wrap;rounded=0;" vertex="1" parent="KkaFJ8NdGpzKe8xKeU3h-1">
          <mxGeometry x="420" y="244" width="120" height="72" as="geometry" />
        </mxCell>
        <mxCell id="KkaFJ8NdGpzKe8xKeU3h-15" value="js-ini" style="shape=module;align=left;spacingLeft=20;align=center;verticalAlign=middle;whiteSpace=wrap;html=1;" vertex="1" parent="KkaFJ8NdGpzKe8xKeU3h-1">
          <mxGeometry x="750" y="263" width="100" height="50" as="geometry" />
        </mxCell>
        <mxCell id="KkaFJ8NdGpzKe8xKeU3h-16" style="edgeStyle=orthogonalEdgeStyle;rounded=0;orthogonalLoop=1;jettySize=auto;html=1;entryX=0;entryY=0;entryDx=0;entryDy=15;entryPerimeter=0;" edge="1" parent="KkaFJ8NdGpzKe8xKeU3h-1" source="KkaFJ8NdGpzKe8xKeU3h-5" target="KkaFJ8NdGpzKe8xKeU3h-15">
          <mxGeometry relative="1" as="geometry" />
        </mxCell>
        <mxCell id="KkaFJ8NdGpzKe8xKeU3h-21" value="IniFileStore" style="swimlane;fontStyle=1;align=center;verticalAlign=top;childLayout=stackLayout;horizontal=1;startSize=26;horizontalStack=0;resizeParent=1;resizeParentMax=0;resizeLast=0;collapsible=1;marginBottom=0;whiteSpace=wrap;html=1;" vertex="1" parent="KkaFJ8NdGpzKe8xKeU3h-1">
          <mxGeometry x="20" y="59" width="290" height="240" as="geometry" />
        </mxCell>
        <mxCell id="KkaFJ8NdGpzKe8xKeU3h-27" value="- file: Blob" style="text;strokeColor=none;fillColor=none;align=left;verticalAlign=top;spacingLeft=4;spacingRight=4;overflow=hidden;rotatable=0;points=[[0,0.5],[1,0.5]];portConstraint=eastwest;whiteSpace=wrap;html=1;" vertex="1" parent="KkaFJ8NdGpzKe8xKeU3h-21">
          <mxGeometry y="26" width="290" height="26" as="geometry" />
        </mxCell>
        <mxCell id="KkaFJ8NdGpzKe8xKeU3h-25" value="+ sections: SectionData[]]" style="text;strokeColor=none;fillColor=none;align=left;verticalAlign=top;spacingLeft=4;spacingRight=4;overflow=hidden;rotatable=0;points=[[0,0.5],[1,0.5]];portConstraint=eastwest;whiteSpace=wrap;html=1;" vertex="1" parent="KkaFJ8NdGpzKe8xKeU3h-21">
          <mxGeometry y="52" width="290" height="26" as="geometry" />
        </mxCell>
        <mxCell id="KkaFJ8NdGpzKe8xKeU3h-29" value="+ selectedSectionIdx: number" style="text;strokeColor=none;fillColor=none;align=left;verticalAlign=top;spacingLeft=4;spacingRight=4;overflow=hidden;rotatable=0;points=[[0,0.5],[1,0.5]];portConstraint=eastwest;whiteSpace=wrap;html=1;" vertex="1" parent="KkaFJ8NdGpzKe8xKeU3h-21">
          <mxGeometry y="78" width="290" height="24" as="geometry" />
        </mxCell>
        <mxCell id="KkaFJ8NdGpzKe8xKeU3h-23" value="" style="line;strokeWidth=1;fillColor=none;align=left;verticalAlign=middle;spacingTop=-1;spacingLeft=3;spacingRight=3;rotatable=0;labelPosition=right;points=[];portConstraint=eastwest;strokeColor=inherit;" vertex="1" parent="KkaFJ8NdGpzKe8xKeU3h-21">
          <mxGeometry y="102" width="290" height="8" as="geometry" />
        </mxCell>
        <mxCell id="KkaFJ8NdGpzKe8xKeU3h-24" value="+ setKeyValue(key: string, value: IniValue): void" style="text;strokeColor=none;fillColor=none;align=left;verticalAlign=top;spacingLeft=4;spacingRight=4;overflow=hidden;rotatable=0;points=[[0,0.5],[1,0.5]];portConstraint=eastwest;whiteSpace=wrap;html=1;" vertex="1" parent="KkaFJ8NdGpzKe8xKeU3h-21">
          <mxGeometry y="110" width="290" height="26" as="geometry" />
        </mxCell>
        <mxCell id="KkaFJ8NdGpzKe8xKeU3h-30" value="+ readFile(file: Blob): void" style="text;strokeColor=none;fillColor=none;align=left;verticalAlign=top;spacingLeft=4;spacingRight=4;overflow=hidden;rotatable=0;points=[[0,0.5],[1,0.5]];portConstraint=eastwest;whiteSpace=wrap;html=1;" vertex="1" parent="KkaFJ8NdGpzKe8xKeU3h-21">
          <mxGeometry y="136" width="290" height="26" as="geometry" />
        </mxCell>
        <mxCell id="KkaFJ8NdGpzKe8xKeU3h-31" value="+ toString(): string" style="text;strokeColor=none;fillColor=none;align=left;verticalAlign=top;spacingLeft=4;spacingRight=4;overflow=hidden;rotatable=0;points=[[0,0.5],[1,0.5]];portConstraint=eastwest;whiteSpace=wrap;html=1;" vertex="1" parent="KkaFJ8NdGpzKe8xKeU3h-21">
          <mxGeometry y="162" width="290" height="26" as="geometry" />
        </mxCell>
        <mxCell id="KkaFJ8NdGpzKe8xKeU3h-32" value="- handleTextFileLoad(e: ProgressEvent): void" style="text;strokeColor=none;fillColor=none;align=left;verticalAlign=top;spacingLeft=4;spacingRight=4;overflow=hidden;rotatable=0;points=[[0,0.5],[1,0.5]];portConstraint=eastwest;whiteSpace=wrap;html=1;" vertex="1" parent="KkaFJ8NdGpzKe8xKeU3h-21">
          <mxGeometry y="188" width="290" height="26" as="geometry" />
        </mxCell>
        <mxCell id="KkaFJ8NdGpzKe8xKeU3h-33" value="- handleBinaryFileLoad(e: ProgressEvent): void" style="text;strokeColor=none;fillColor=none;align=left;verticalAlign=top;spacingLeft=4;spacingRight=4;overflow=hidden;rotatable=0;points=[[0,0.5],[1,0.5]];portConstraint=eastwest;whiteSpace=wrap;html=1;" vertex="1" parent="KkaFJ8NdGpzKe8xKeU3h-21">
          <mxGeometry y="214" width="290" height="26" as="geometry" />
        </mxCell>
        <mxCell id="KkaFJ8NdGpzKe8xKeU3h-28" style="edgeStyle=orthogonalEdgeStyle;rounded=0;orthogonalLoop=1;jettySize=auto;html=1;" edge="1" parent="KkaFJ8NdGpzKe8xKeU3h-1" source="KkaFJ8NdGpzKe8xKeU3h-25" target="KkaFJ8NdGpzKe8xKeU3h-2">
          <mxGeometry relative="1" as="geometry" />
        </mxCell>
      </root>
    </mxGraphModel>
  </diagram>
</mxfile>
